<?xml version="1.0" encoding="utf-8"?>
<!-- Generator: Adobe Illustrator 24.2.0, SVG Export Plug-In . SVG Version: 6.00 Build 0)  -->
<svg version="1.1" id="Camada_1" xmlns="http://www.w3.org/2000/svg" xmlns:xlink="http://www.w3.org/1999/xlink" x="0px" y="0px"
	 viewBox="0 0 384 384" style="enable-background:new 0 0 384 384;" xml:space="preserve">

<g>
	<path d="M383.3,235.4c-2.8-25.8-24.5-51.5-56.6-54.6c-2.1-0.2-2.3-1.3-2.8-2.8c-10.5-33.3-44.9-50.4-77.6-38.3
		c-2,0.7-3,0.6-4.5-0.9c-19.6-18.8-45.7-23.6-70.5-12.8c-1.8,0.8-2.6,1-3.4-1.3c-10.5-27.5-34.4-42.3-63.4-39.3
		c-29.3,3-53.3,31-51.5,60.5c1.4,23.9,13,41.1,34.3,51.9c1.7,0.9,2.1,1.4,1.1,3.2c-5.7,10.5-8.4,21.8-8.1,33.8
		c0,2.2-0.8,3.3-2.5,4.4c-7.3,4.6-12.7,11-15.8,18.9c-1.2,3.2-2.7,4.5-6.1,5.2c-23.5,4.4-39.5,28.3-34.9,51.8
		c4.3,21.7,22.2,36.6,44.3,36.6c36.9,0.1,73.7,0,110.6,0c26.8,0,46.7-16.3,52-42.5c0.4-2.1,1.2-2.5,3.1-2.5c7.8,0.1,15.5,0.1,23.2,0
		c5.4,0,8.9-2.9,9-7.4c0.1-4.5-3.5-7.5-8.8-7.6c-7.9,0-15.7-0.1-23.6,0c-2,0-2.9-0.4-3.5-2.6c-4.9-18.7-16.6-31.2-35-37.1
		c-1.9-0.6-2.8-1.7-3.6-3.4c-12.6-27.9-47.4-35.5-70.5-15.4c-1.5,1.3-2.7,1.7-4.6,1c-4.5-1.6-9.3-2.5-14-1.9
		c-4.2,0.5-4.3-1.3-3.9-4.5c2.8-25.1,22-45.7,47.1-50c4.7-0.8,7.1-3,8.5-7.5c5.5-17.9,17.4-29.7,35.7-33.7c19-4.2,35.2,1.6,48,16.5
		c4.3,5,6.6,5.5,12.6,2.5c13-6.5,26.2-6.8,39.3-0.5c13.9,6.7,21.8,18.1,24.6,33.2c0.9,5,3.5,7,8.5,7.1h3.4
		c19.6,0.7,37.3,14,43.5,32.9c6.3,18.9,0,40.4-15.5,52.7c-8.2,6.5-17.4,10-27.8,10.6c-4.9,0.3-7.9,3.4-7.8,7.8
		c0.2,4.4,3.4,7.2,8.3,7.2c1,0,2,0,3-0.1c26.9-2.7,49-21.8,55.4-48c0.5-2,0.3-4.2,1.7-5.8v-16.5C383.7,236,383.3,235.7,383.3,235.4z
		 M99,247.6c0.9,0,1.8,0,2.7,0c3.8,0.2,7.7,1.2,11.5,3.1c0.3,0.1,0.6,0.3,1,0.4c4.3,1.6,6.9,1.1,10-2.8
		c15.7-19.4,46.2-12.6,52.2,11.1c1,3.9,3.8,5.5,7.6,6.1c16.7,3,28.9,17.4,29.5,34.4c0,0.1,0,0.1,0,0.2c0,0.9,0,1.7,0,2.5
		c-0.7,15.2-11.4,28.6-26.6,32.9c-2.7,0.8-5.5,1.1-8.3,1.2c-0.9,0-1.8,0.1-2.7,0.1h-54.7c-12.7,0-25.3,0-38,0c-6.3,0-12.7,0-19,0
		c-0.4,0-0.8,0-1.2,0c-12.4-0.6-23.2-9.1-26.8-21.1c-3.7-12.4,1.2-26,12-33.2c4.6-3.1,9.7-4.8,15.2-5c0.4,0,0.7,0,1.1,0
		c0.2,0,0.3,0,0.5,0c5.8-0.2,7.7-2,8.9-7.8C76.9,256.3,87.1,248,99,247.6z M154.8,136.2c0,0.1-0.1,0.2-0.1,0.3v0
		c-0.3,0.6-0.7,1.2-1.4,1.8c-6.8,6.4-11.8,14.1-15.1,22.9c-0.7,1.7-1.4,2.6-3.3,3.1c-13.4,3.3-25,9.9-34.5,19.9
		c-1.7,1.8-3,1.9-5.1,1c-1-0.4-2.1-0.9-3-1.4c-0.5-0.2-0.9-0.5-1.4-0.7c-16.5-9-26.3-28.7-22.5-47.1c4.1-20,20.8-34.7,40.3-36
		c0.3,0,0.6,0,0.9,0c0.9,0,1.8,0,2.6,0c0.6,0,1.3,0,1.9,0.1c0.6,0,1.2,0.1,1.8,0.1c18.6,1.8,33.9,14.7,38.7,33
		c0.3,1.1,0.4,2,0.2,2.8C154.9,136,154.9,136.1,154.8,136.2z"/>
	<path d="M154.9,135.9c0.2-0.8,0.1-1.7-0.2-2.8c-4.9-18.9-21-32-40.5-33.1c19.5,1.1,35.7,14.2,40.6,33.1
		C155.1,134.2,155.2,135.1,154.9,135.9z"/>
	<path d="M113.3,250.7c0.3,0.1,0.6,0.3,0.9,0.4C113.8,251,113.5,250.8,113.3,250.7c-3.9-1.9-7.8-2.9-11.6-3.1
		C105.5,247.8,109.4,248.8,113.3,250.7z"/>
	<path d="M213.5,302.6c-0.6,15.1-11.3,28.6-26.5,32.9c-2.7,0.8-5.5,1.1-8.4,1.2c2.8-0.1,5.6-0.5,8.3-1.2
		C202.1,331.3,212.8,317.8,213.5,302.6z"/>
	<path d="M34.5,144.1c0.1,4.5-3.4,7.5-8.7,7.5s-10.7-0.2-16,0.1c-4.5,0.2-7.7-1.4-9.6-5.4v-4.5c2.4-4.1,5.9-5.5,10.5-5.2
		c5,0.3,10,0,14.9,0.1C30.9,136.7,34.4,139.6,34.5,144.1z"/>
	<path d="M38.9,62.9c1.6-0.1,3.4,1,4.9,2.5c4.3,4.3,8.7,8.6,13,13c3.3,3.5,3.4,8,0.2,11c-3,3-7.3,2.9-10.7-0.3
		c-4.6-4.4-9.1-8.9-13.5-13.5c-2.3-2.4-2.8-5.2-1.5-8.3C32.7,64.3,35,62.9,38.9,62.9z"/>
	<path d="M119.4,49.4c0,3.4,0.1,6.7,0,10.1c-0.2,4-3.1,6.8-6.9,7.1c-3.6,0.3-7.4-2.3-7.7-6.2c-0.7-7.3-0.7-14.7,0-22
		c0.4-3.9,3.9-6.3,7.7-6.1c3.8,0.2,6.7,3,6.9,7C119.5,42.7,119.4,46.1,119.4,49.4z"/>
	<path d="M185.4,62.9c3.6,0,5.8,1.5,7.1,4.2c1.4,2.7,1.2,5.6-0.8,7.7c-4.9,5.2-9.9,10.3-15.1,15.1c-2.9,2.7-7.1,2.1-9.8-0.6
		c-2.6-2.6-3-7.1-0.4-9.8c4.8-5.1,9.8-10,14.8-14.9C182.5,63.3,184.2,62.8,185.4,62.9z"/>
	<path d="M30.7,217.5c-0.1-1.8,1-3.6,2.5-5.1c4.3-4.3,8.6-8.7,13-12.9c3.5-3.4,7.9-3.4,11-0.3c2.9,3,2.9,7.4-0.3,10.7
		c-4.4,4.6-8.9,9.1-13.5,13.5c-2.4,2.3-5.3,2.9-8.3,1.5C32.3,223.5,30.7,221.2,30.7,217.5z"/>
	<path class="st0" d="M288.3,291.8c4.1,0,7.6,3.5,7.6,7.6c-0.1,4.1-3.3,7.3-7.4,7.3c-4.3,0-7.5-3.3-7.5-7.6
		C281,295.1,284.3,291.8,288.3,291.8z"/>
	<path class="st1" d="M113.3,250.7c0.3,0.1,0.6,0.3,0.9,0.4C113.8,251,113.5,250.8,113.3,250.7c-3.9-1.9-7.8-2.9-11.6-3.1
		C105.5,247.8,109.4,248.8,113.3,250.7z"/>
	<path class="st1" d="M213.5,302.6c-0.6,15.1-11.3,28.6-26.5,32.9c-2.7,0.8-5.5,1.1-8.4,1.2c2.8-0.1,5.6-0.5,8.3-1.2
		C202.1,331.3,212.8,317.8,213.5,302.6z"/>
	<path class="st1" d="M68.5,136c-3.8,18.9,6.5,39.2,23.8,47.8C74.9,175.2,64.5,154.9,68.5,136c4-20.3,21.3-35.2,41.2-36.1
		C89.8,100.8,72.6,115.7,68.5,136z"/>
	<path class="st1" d="M154.8,136.2c-0.3,0.7-0.8,1.4-1.5,2.1C154.1,137.6,154.5,136.9,154.8,136.2z"/>
</g>
</svg>
